<svg height="480pt" viewBox="0 -32 480 480" width="480pt" xmlns="http://www.w3.org/2000/svg"><path d="m440 0h-400c-22.082031.0273438-39.9726562 17.917969-40 40v272c.0273438 22.082031 17.917969 39.972656 40 40h160v-16h-160c-13.253906 0-24-10.746094-24-24v-272c0-13.253906 10.746094-24 24-24h400c13.253906 0 24 10.746094 24 24v272c0 13.253906-10.746094 24-24 24h-8v16h8c22.082031-.027344 39.972656-17.917969 40-40v-272c-.027344-22.082031-17.917969-39.9726562-40-40zm0 0"/><path d="m440 296v-256c0-4.417969-3.582031-8-8-8h-384c-4.417969 0-8 3.582031-8 8v272c0 4.417969 3.582031 8 8 8h208v-16h-200v-256h368v248zm0 0"/><path d="m72 64h16v16h-16zm0 0"/><path d="m72 96h32v16h-32zm0 0"/><path d="m72 128h32v16h-32zm0 0"/><path d="m72 160h32v16h-32zm0 0"/><path d="m72 192h32v16h-32zm0 0"/><path d="m72 224h32v16h-32zm0 0"/><path d="m72 256h32v16h-32zm0 0"/><path d="m408 192h-240v-20.6875l14.761719-14.761719 10.582031 15.890625c1.320312 2.003906 3.46875 3.308594 5.855469 3.558594h.800781c2.121094 0 4.15625-.84375 5.65625-2.34375l34.34375-34.34375 18.34375 18.34375c1.574219 1.609375 3.769531 2.460938 6.015625 2.335938 2.246094-.105469 4.347656-1.144532 5.792969-2.863282l33.847656-40.632812 33.847656 40.632812c1.445313 1.71875 3.546875 2.757813 5.792969 2.863282 2.25.132812 4.445313-.71875 6.015625-2.335938l18.34375-18.34375 10.34375 10.34375c1.621094 1.671875 3.90625 2.523438 6.222656 2.320312 2.316406-.171874 4.445313-1.339843 5.832032-3.199218l24-32-12.796876-9.601563-18.464843 24.625-9.480469-9.480469c-3.125-3.125-8.1875-3.125-11.3125 0l-17.808594 17.808594-34.398437-41.28125c-1.574219-1.738281-3.808594-2.730468-6.152344-2.730468s-4.578125.992187-6.152344 2.730468l-34.398437 41.28125-17.808594-17.808594c-3.125-3.125-8.1875-3.125-11.3125 0l-33.105469 33.105469-10.582031-15.890625c-1.332031-1.992187-3.484375-3.285156-5.871094-3.519531-2.382812-.234375-4.746094.609375-6.441406 2.304687l-10.3125 10.367188v-52.6875h-16v104c0 4.417969 3.582031 8 8 8h248zm0 0"/><path d="m152 64h48v16h-48zm0 0"/><path d="m216 64h16v16h-16zm0 0"/><path d="m152 224h32v16h-32zm0 0"/><path d="m200 224h16v16h-16zm0 0"/><path d="m152 256h32v16h-32zm0 0"/><path d="m200 256h16v16h-16zm0 0"/><path d="m248 224h16v16h-16zm0 0"/><path d="m344 224h32v16h-32zm0 0"/><path d="m392 224h16v16h-16zm0 0"/><path d="m344 256h32v16h-32zm0 0"/><path d="m392 256h16v16h-16zm0 0"/><path d="m396 296.320312c-6.980469-1.15625-14.117188.8125-19.511719 5.390626-.160156.128906-.3125.265624-.472656.410156-9.101563-8.171875-22.898437-8.171875-32 0-6.621094-5.671875-15.71875-7.476563-24-4.761719v-40.503906c.152344-11.941407-8.273437-22.273438-20-24.535157-6.96875-1.183593-14.109375.765626-19.507813 5.332032-5.402343 4.5625-8.511718 11.277344-8.507812 18.347656v97.871094l-21.230469-12.734375c-6.484375-3.917969-14.523437-4.21875-21.28125-.800781l-1.265625.625c-6.9375 3.472656-11.546875 10.328124-12.152344 18.0625-.605468 7.734374 2.882813 15.222656 9.195313 19.738281l50.085937 35.765625c1.359376.964844 2.984376 1.476562 4.648438 1.472656h128c4.417969 0 8-3.582031 8-8v-87.144531c.148438-11.941407-8.273438-22.273438-20-24.535157zm4 103.679688h-117.441406l-48-34.28125c-1.75-1.242188-2.722656-3.316406-2.558594-5.460938.164062-2.144531 1.4375-4.046874 3.359375-5.011718l1.257813-.621094c1.867187-.949219 4.089843-.863281 5.878906.222656l33.351562 20c2.472656 1.5 5.5625 1.550782 8.078125.132813 2.519531-1.421875 4.078125-4.089844 4.074219-6.980469v-112c0-2.351562 1.03125-4.582031 2.824219-6.105469 1.8125-1.550781 4.226562-2.203125 6.574219-1.773437 3.996093.976562 6.753906 4.625 6.601562 8.734375v63.144531c0 4.417969 3.582031 8 8 8s8-3.582031 8-8 3.582031-8 8-8 8 3.582031 8 8 3.582031 8 8 8 8-3.582031 8-8 3.582031-8 8-8 8 3.582031 8 8 3.582031 8 8 8 8-3.582031 8-8c0-2.367188 1.046875-4.613281 2.859375-6.132812 1.816406-1.523438 4.210937-2.160157 6.539063-1.746094 3.996093.976562 6.753906 4.625 6.601562 8.734375zm0 0"/><path d="m120 64h16v224h-16zm0 0"/></svg>